<svg width="11" height="9" viewBox="0 0 11 9" fill="none" xmlns="http://www.w3.org/2000/svg">
<path d="M10.8486 1.69629L7.50216 0C7.15669 0.488672 6.39185 0.829688 5.49981 0.829688C4.60778 0.829688 3.84294 0.488672 3.49747 0L0.151065 1.69629C0.0152833 1.7666 -0.0397167 1.93535 0.0273146 2.07422L1.01044 4.08691C1.07919 4.22578 1.24419 4.28203 1.37997 4.21348L2.35278 3.72656C2.53497 3.63516 2.7481 3.77051 2.7481 3.97969V8.4375C2.7481 8.74863 2.99388 9 3.2981 9H7.6981C8.00231 9 8.2481 8.74863 8.2481 8.4375V3.97793C8.2481 3.77051 8.46122 3.6334 8.64341 3.7248L9.61622 4.21172C9.752 4.28203 9.917 4.22578 9.98575 4.08516L10.9706 2.07422C11.0393 1.93535 10.9843 1.76484 10.8486 1.69629Z" fill="#ACFFE3"/>
</svg>
