<svg width="7" height="9" viewBox="0 0 7 9" fill="none" xmlns="http://www.w3.org/2000/svg">
<path d="M3.49832 0.266816C3.51178 0.349433 3.76923 1.92795 3.76923 2.53088C3.76923 3.45021 3.30144 4.10588 2.60986 4.36955L2.82692 8.5549C2.8387 8.79572 2.65529 8.99963 2.42308 8.99963H1.34615C1.11563 8.99963 0.930529 8.79748 0.942308 8.5549L1.15938 4.36955C0.466106 4.10588 0 3.44846 0 2.53088C0 1.92619 0.257452 0.349433 0.270913 0.266816C0.32476 -0.09002 1.03317 -0.0952935 1.07692 0.286152V2.76818C1.0988 2.82795 1.33101 2.82443 1.34615 2.76818C1.36971 2.32346 1.47909 0.321308 1.48077 0.275605C1.5363 -0.09002 2.23293 -0.09002 2.28678 0.275605C2.29014 0.323066 2.39784 2.32346 2.42139 2.76818C2.43654 2.82443 2.67043 2.82795 2.69062 2.76818V0.286152C2.73438 -0.0935357 3.44447 -0.09002 3.49832 0.266816ZM5.50409 5.28889L5.25168 8.5426C5.23149 8.78869 5.41827 8.99963 5.65385 8.99963H6.59615C6.81995 8.99963 7 8.81154 7 8.57775V0.421503C7 0.189472 6.81995 -0.000371605 6.59615 -0.000371605C5.20793 -0.000371605 2.87067 3.13732 5.50409 5.28889Z" fill="#D84E85"/>
</svg>
