<svg width="13" height="10" viewBox="0 0 13 10" fill="none" xmlns="http://www.w3.org/2000/svg">
<path d="M3.25001 3.74912C1.60266 3.74912 0.253911 4.8917 0.00203636 6.37998C-0.0142136 6.47373 0.0690676 6.56162 0.17063 6.56162H6.33141C6.43297 6.56162 6.51625 6.47373 6.5 6.37998C6.2461 4.8917 4.89735 3.74912 3.25001 3.74912ZM6.32938 7.18662H0.17063C0.0690676 7.18662 -0.0142136 7.27452 0.00203636 7.36827C0.253911 8.85655 1.60266 9.99912 3.25001 9.99912C4.89735 9.99912 6.2461 8.85655 6.49797 7.36827C6.51422 7.27452 6.43094 7.18662 6.32938 7.18662ZM12.0534 0.909281C10.9058 -0.194235 9.12438 -0.289938 7.85079 0.596781C7.76954 0.653421 7.76344 0.770609 7.83454 0.837015L12.1266 4.96592C12.1977 5.03428 12.3195 5.02842 12.3764 4.9503C13.3006 3.72569 13.2011 2.0128 12.0534 0.909281ZM7.37344 1.28233C7.30235 1.21397 7.18047 1.21983 7.1236 1.29795C6.20141 2.52256 6.30094 4.23545 7.44657 5.33897C8.59422 6.44248 10.3756 6.53819 11.6492 5.64952C11.7305 5.59287 11.7366 5.47569 11.6655 5.40928L7.37344 1.28233Z" fill="#889AFF"/>
</svg>
