<svg width="23" height="23" viewBox="0 0 23 23" fill="none" xmlns="http://www.w3.org/2000/svg">
<path fill-rule="evenodd" clip-rule="evenodd" d="M15.1698 12.8308C17.2971 9.61986 16.9463 5.25114 14.1173 2.42214C10.8877 -0.807379 5.65166 -0.807379 2.42214 2.42214C-0.807379 5.65166 -0.807379 10.8877 2.42214 14.1173C5.25114 16.9463 9.61986 17.2971 12.8308 15.1698L20.661 23L23 20.661L15.1698 12.8308ZM11.7782 4.76116C13.7159 6.69887 13.7159 9.84052 11.7782 11.7782C9.84052 13.7159 6.69887 13.7159 4.76116 11.7782C2.82345 9.84052 2.82345 6.69887 4.76116 4.76116C6.69887 2.82345 9.84052 2.82345 11.7782 4.76116Z" fill="#F53D7A"/>
</svg>
